<svg xmlns="http://www.w3.org/2000/svg" width="15" height="14.999" viewBox="0 0 15 14.999">
  <g id="call" transform="translate(-1 -1.018)">
    <g id="Group_2" data-name="Group 2" transform="translate(1 1.018)">
      <g id="Group_1" data-name="Group 1" transform="translate(0 0)">
        <path id="Path_1" data-name="Path 1" d="M15.607,12.589l-3.036-2.025a.886.886,0,0,0-1.187.193L10.5,11.894a.378.378,0,0,1-.485.1L9.847,11.9A10.167,10.167,0,0,1,7.2,9.823a10.208,10.208,0,0,1-2.081-2.65L5.024,7a.378.378,0,0,1,.1-.486L6.26,5.634a.887.887,0,0,0,.193-1.187L4.428,1.412A.882.882,0,0,0,3.24,1.144l-1.27.763a1.791,1.791,0,0,0-.817,1.06C.7,4.632,1.041,7.507,5.275,11.742c3.369,3.368,5.877,4.274,7.6,4.274a4.429,4.429,0,0,0,1.175-.153,1.789,1.789,0,0,0,1.06-.817l.763-1.269A.882.882,0,0,0,15.607,12.589Zm-.163.932-.762,1.27a1.292,1.292,0,0,1-.762.591c-1.538.422-4.224.072-8.29-3.993S1.214,4.637,1.636,3.1a1.294,1.294,0,0,1,.592-.763L3.5,1.574a.382.382,0,0,1,.516.116l1.1,1.651.923,1.385a.385.385,0,0,1-.083.515l-1.137.884a.875.875,0,0,0-.232,1.123l.09.164a10.6,10.6,0,0,0,2.167,2.765,10.615,10.615,0,0,0,2.764,2.166l.164.09a.875.875,0,0,0,1.123-.232l.884-1.137a.385.385,0,0,1,.515-.083l3.036,2.025A.382.382,0,0,1,15.443,13.521Z" transform="translate(-1 -1.018)"/>
        <path id="Path_2" data-name="Path 2" d="M282.878,69.824a4.254,4.254,0,0,1,4.249,4.249.25.25,0,1,0,.5,0,4.755,4.755,0,0,0-4.749-4.749.25.25,0,0,0,0,.5Z" transform="translate(-274.378 -67.323)"/>
        <path id="Path_3" data-name="Path 3" d="M282.878,121.024a2.753,2.753,0,0,1,2.75,2.75.25.25,0,1,0,.5,0,3.253,3.253,0,0,0-3.25-3.25.25.25,0,0,0,0,.5Z" transform="translate(-274.378 -117.023)"/>
        <path id="Path_4" data-name="Path 4" d="M282.878,172.224a1.251,1.251,0,0,1,1.25,1.25.25.25,0,1,0,.5,0,1.752,1.752,0,0,0-1.75-1.75.25.25,0,0,0,0,.5Z" transform="translate(-274.378 -166.724)"/>
      </g>
    </g>
  </g>
</svg>
