<svg xmlns="http://www.w3.org/2000/svg" xmlns:xlink="http://www.w3.org/1999/xlink" width="42" height="42" viewBox="0 0 42 42">
  <defs>
    <style>
      .cls-1 {
        filter: url(#Subtraction_4);
      }
    </style>
    <filter id="Subtraction_4" x="0" y="0" width="42" height="42" filterUnits="userSpaceOnUse">
      <feOffset dy="3" input="SourceAlpha"/>
      <feGaussianBlur stdDeviation="3" result="blur"/>
      <feFlood flood-opacity="0.161"/>
      <feComposite operator="in" in2="blur"/>
      <feComposite in="SourceGraphic"/>
    </filter>
  </defs>
  <g id="facebook" transform="translate(9 6)">
    <g class="cls-1" transform="matrix(1, 0, 0, 1, -9, -6)">
      <path id="Subtraction_4-2" data-name="Subtraction 4" d="M-1515-38a11.922,11.922,0,0,1-8.486-3.515A11.922,11.922,0,0,1-1527-50a11.921,11.921,0,0,1,3.515-8.485A11.923,11.923,0,0,1-1515-62a11.921,11.921,0,0,1,8.485,3.515A11.921,11.921,0,0,1-1503-50a11.923,11.923,0,0,1-3.515,8.486A11.921,11.921,0,0,1-1515-38Zm-3.912-14.287v2.757h1.543v7.845h3.244v-7.845h2.142l.283-2.754h-2.425v-1.623a.662.662,0,0,1,.688-.752h1.744v-2.676l-2.4-.01a3.043,3.043,0,0,0-3.273,3.273v1.784Z" transform="translate(1536 68)"/>
    </g>
  </g>
</svg>
