<svg xmlns="http://www.w3.org/2000/svg" width="18.286" height="13" viewBox="0 0 18.286 13">
  <g id="mail" transform="translate(0 -4.482)">
    <g id="Group_4" data-name="Group 4" transform="translate(3.185 10.75)">
      <path id="Path_5" data-name="Path 5" d="M22.543,18.884a.292.292,0,0,1-.2-.08l-3.393-3.183a.295.295,0,1,1,.4-.429l3.393,3.183a.295.295,0,0,1-.2.509Z" transform="translate(-10.922 -15.111)"/>
      <path id="Path_6" data-name="Path 6" d="M5.7,18.885a.295.295,0,0,1-.2-.509l3.394-3.183a.295.295,0,1,1,.4.429L5.9,18.8A.292.292,0,0,1,5.7,18.885Z" transform="translate(-5.402 -15.112)"/>
    </g>
    <path id="Path_7" data-name="Path 7" d="M16.812,17.482H1.474A1.476,1.476,0,0,1,0,16.008V5.956A1.476,1.476,0,0,1,1.474,4.482H16.812a1.476,1.476,0,0,1,1.474,1.474V16.008A1.476,1.476,0,0,1,16.812,17.482ZM1.474,5.072a.886.886,0,0,0-.884.884V16.008a.886.886,0,0,0,.884.884H16.812a.886.886,0,0,0,.884-.884V5.956a.886.886,0,0,0-.884-.884Z"/>
    <path id="Path_8" data-name="Path 8" d="M9.413,12.79a1.649,1.649,0,0,1-1.083-.39L.76,5.8a.295.295,0,1,1,.387-.445l7.571,6.6a1.1,1.1,0,0,0,1.39,0L17.67,5.361a.3.3,0,1,1,.388.445L10.5,12.4A1.647,1.647,0,0,1,9.413,12.79Z" transform="translate(-0.27 -0.327)"/>
  </g>
</svg>
