<svg xmlns="http://www.w3.org/2000/svg" xmlns:xlink="http://www.w3.org/1999/xlink" width="41.999" height="42" viewBox="0 0 41.999 42">
  <defs>
    <style>
      .cls-1 {
        filter: url(#Subtraction_3);
      }
    </style>
    <filter id="Subtraction_3" x="0" y="0" width="41.999" height="42" filterUnits="userSpaceOnUse">
      <feOffset dy="3" input="SourceAlpha"/>
      <feGaussianBlur stdDeviation="3" result="blur"/>
      <feFlood flood-opacity="0.161"/>
      <feComposite operator="in" in2="blur"/>
      <feComposite in="SourceGraphic"/>
    </filter>
  </defs>
  <g id="twitter" transform="translate(8.999 6)">
    <g class="cls-1" transform="matrix(1, 0, 0, 1, -9, -6)">
      <path id="Subtraction_3-2" data-name="Subtraction 3" d="M-1549-38a11.921,11.921,0,0,1-8.485-3.515A11.923,11.923,0,0,1-1561-50a11.921,11.921,0,0,1,3.515-8.485A11.921,11.921,0,0,1-1549-62a11.922,11.922,0,0,1,8.485,3.515A11.921,11.921,0,0,1-1537-50a11.923,11.923,0,0,1-3.514,8.486A11.921,11.921,0,0,1-1549-38Zm-6.63-6.648h0a8.129,8.129,0,0,0,4.4,1.288,8.082,8.082,0,0,0,8.161-8.161c0-.125,0-.249-.008-.371a5.772,5.772,0,0,0,1.431-1.485,5.719,5.719,0,0,1-1.647.452,2.873,2.873,0,0,0,1.261-1.587,5.744,5.744,0,0,1-1.822.7,2.881,2.881,0,0,0-2.094-.905,2.872,2.872,0,0,0-2.868,2.868,2.9,2.9,0,0,0,.075.653,8.17,8.17,0,0,1-5.912-3,2.867,2.867,0,0,0-.389,1.442,2.867,2.867,0,0,0,1.276,2.388,2.86,2.86,0,0,1-1.3-.359v.036a2.874,2.874,0,0,0,2.3,2.812,2.865,2.865,0,0,1-.755.1,2.862,2.862,0,0,1-.54-.051,2.869,2.869,0,0,0,2.679,1.993,5.721,5.721,0,0,1-3.562,1.228A5.741,5.741,0,0,1-1555.629-44.648Z" transform="translate(1570 68)"/>
    </g>
  </g>
</svg>
