<svg xmlns="http://www.w3.org/2000/svg" width="79" height="50" viewBox="0 0 79 50">
  <g id="Group_47" data-name="Group 47" transform="translate(-176 -797)">
    <g id="Rectangle_68" data-name="Rectangle 68" transform="translate(176 797)" fill="#fff" stroke="#002e80" stroke-width="1">
      <rect width="79" height="50" rx="14" stroke="none"/>
      <rect x="0.5" y="0.5" width="78" height="49" rx="13.5" fill="none"/>
    </g>
    <g id="YC_logo" transform="translate(194 804)">
      <path id="Path_273" data-name="Path 273" d="M.854,63.076H42.236a.873.873,0,0,1,.854.886v2.082a.873.873,0,0,1-.854.887H.854A.873.873,0,0,1,0,66.045V63.963a.874.874,0,0,1,.854-.887M3.08,65.093v-.875H2.239v1.639h.108a.723.723,0,0,0,.5-.181.746.746,0,0,0,.232-.584m-.978.764V64.217H1.26v.875a.743.743,0,0,0,.232.574.712.712,0,0,0,.5.19Zm2.969,0v-.875A.743.743,0,0,0,4.84,64.4a.723.723,0,0,0-.5-.181H4.23v1.639Zm-.978,0V64.217H3.985a.714.714,0,0,0-.5.19.741.741,0,0,0-.232.574v.876Zm1.15-1.639v1.639h.842V64.79h.378v-.136H6.085v-.435H5.243Zm2.078.937v-.937H7.213a.722.722,0,0,0-.5.181.742.742,0,0,0-.232.583v.174h.842Zm1.956.7v-.875a.743.743,0,0,0-.232-.574.712.712,0,0,0-.5-.19H8.437v1.639Zm-1.82-.432H8.3V64.218H7.458v1.207Zm3.8-.332v-.174h-.842v.938h.108a.723.723,0,0,0,.5-.181.743.743,0,0,0,.232-.583m.076-.3v-.136H10.28v-.435H9.439v.875a.743.743,0,0,0,.232.574.713.713,0,0,0,.5.19h.109V64.79h1.054Zm1.915.366v-.174a.743.743,0,0,0-.232-.583.722.722,0,0,0-.5-.181h-.109v.937h.842Zm-1.82.7h.842V64.217h-.108a.712.712,0,0,0-.5.19.741.741,0,0,0-.232.574v.876Zm2.833,0V64.217h-.842v.875a.744.744,0,0,0,.231.574.715.715,0,0,0,.5.19Zm.978-.764v-.739h.2v-.136H14.4v1.639h.109a.724.724,0,0,0,.5-.181.746.746,0,0,0,.232-.584m1.119.764V64.217h-.842v.875a.743.743,0,0,0,.232.574.713.713,0,0,0,.5.19Zm.843-.008L16.5,65.22v.637h.109a.622.622,0,0,0,.3-.06l.192.168Zm-.707-.807.671.572a.562.562,0,0,0,.126-.228.952.952,0,0,0,.046-.293v-.875H16.5Zm2.833.114v-.174A.742.742,0,0,0,19.1,64.4a.722.722,0,0,0-.5-.181h-.108v.937h.842Zm-1.82.7h.842V64.217h-.108a.712.712,0,0,0-.5.19.741.741,0,0,0-.232.574v.876Zm2-1.639v.609a.744.744,0,0,0,.232.583.72.72,0,0,0,.5.181h.108V64.218H19.51Zm1.82.435h-.842v1.2h.842Zm1.982.44v-.174H22.47v.938h.109a.722.722,0,0,0,.5-.181.743.743,0,0,0,.232-.583m.077-.3v-.136H22.334v-.435h-.842v.875a.743.743,0,0,0,.232.574.714.714,0,0,0,.5.19h.109V64.79h1.055Zm1.692.148a.688.688,0,0,0-.267-.586.767.767,0,0,0-.3-.136,1.551,1.551,0,0,0-.339-.03Zm.017.428a.549.549,0,0,0-.227-.417l-.878-.743a.6.6,0,0,0-.38.16.462.462,0,0,0-.145.354.49.49,0,0,0,.173.4l.924.758a.649.649,0,0,0,.385-.156.455.455,0,0,0,.147-.354m-.735.523-.886-.716a.9.9,0,0,0,.042.3.639.639,0,0,0,.205.276.6.6,0,0,0,.216.118.889.889,0,0,0,.223.023h.094l.105,0m2.751-.795v-.44h-.842v1.2h.108a.715.715,0,0,0,.5-.19.742.742,0,0,0,.232-.574m-.978.764V64.217H25.127v.136h.166v.739a.743.743,0,0,0,.232.584.722.722,0,0,0,.5.181Zm2.965-.764v-.174h-.843v.938h.109a.724.724,0,0,0,.5-.181.743.743,0,0,0,.232-.583m.076-.3v-.136H28.121v-.435h-.842v.875a.743.743,0,0,0,.232.574.713.713,0,0,0,.5.19h.109V64.79h1.055Zm1.915.366v-.174a.743.743,0,0,0-.232-.583.722.722,0,0,0-.5-.181H30.25v.937h.841Zm-1.82.7h.842V64.217H30a.715.715,0,0,0-.5.19.743.743,0,0,0-.232.574v.876Zm3.811-.266v-.173a.744.744,0,0,0-.232-.584.723.723,0,0,0-.5-.181H32.24v.938h.842Zm-1.82.266H32.1V64.217h-.842Zm3.326-.96h-.311v.135h.989v.824h.263a.561.561,0,0,0,.422-.166.47.47,0,0,0,.141-.343.413.413,0,0,0-.34-.432V64.91a.285.285,0,0,0,.18-.308.34.34,0,0,0-.14-.267.523.523,0,0,0-.341-.118h-.186V64.9h-.136v-.678h-.22a.52.52,0,0,0-.34.116.344.344,0,0,0-.141.268.4.4,0,0,0,.044.192.2.2,0,0,0,.116.1m.54.96v-.705h-.844v.024a.63.63,0,0,0,.232.532.806.806,0,0,0,.5.149h.111Zm1.962,0V64.217h-.842v.875a.745.745,0,0,0,.232.574.713.713,0,0,0,.5.19Zm.843-.008-.707-.629v.637h.109a.624.624,0,0,0,.3-.06l.192.168Zm-.707-.807.671.572a.568.568,0,0,0,.126-.228.967.967,0,0,0,.045-.293v-.875h-.842Zm2.859.051v-.44h-.842v1.2h.108a.715.715,0,0,0,.5-.19.743.743,0,0,0,.232-.574m-.978.764V64.217H38.1v.136h.166v.739a.746.746,0,0,0,.232.584.723.723,0,0,0,.5.181Zm1.446-.96h-.311v.135h.988v.824h.264a.561.561,0,0,0,.422-.166.47.47,0,0,0,.141-.343.413.413,0,0,0-.34-.432V64.91a.285.285,0,0,0,.18-.308.339.339,0,0,0-.14-.267.522.522,0,0,0-.341-.118h-.187V64.9h-.136v-.678h-.22a.517.517,0,0,0-.339.116.342.342,0,0,0-.141.268.4.4,0,0,0,.044.192.2.2,0,0,0,.116.1m.541.96v-.705h-.844v.024a.63.63,0,0,0,.231.532.807.807,0,0,0,.5.149h.111Z" transform="translate(0 -30.43)" fill="#002e80" fill-rule="evenodd"/>
      <path id="Path_274" data-name="Path 274" d="M27.71,0a8.6,8.6,0,0,1,1.046.045,1.563,1.563,0,0,1,1.06.609,2.536,2.536,0,0,1,.464,1.6,2.293,2.293,0,0,1-.464,1.494,1.5,1.5,0,0,1-.954.567,8.5,8.5,0,0,1-1.178.059H24.238v.64H22.765V2.462h5.878c.26,0,.39-.1.39-.287q0-.263-.386-.264H25.556V0Zm1.241,4.915-.282.645q-.313-.033-.986-.033H22.765V7.441h5.3a.462.462,0,0,1,.509-.369.425.425,0,0,1,.327.14.468.468,0,0,1,.127.323c0,.3-.144.455-.431.455H22.765V9.9H27.71a8.706,8.706,0,0,0,1.046-.045,1.565,1.565,0,0,0,1.06-.607,2.542,2.542,0,0,0,.464-1.6,2.325,2.325,0,0,0-.374-1.34l.355-.7Zm1.328,5.346v2.544l-1.267,0a.981.981,0,0,1,.046.3,2.292,2.292,0,0,1-.482,1.535,1.648,1.648,0,0,1-1.086.582,9.09,9.09,0,0,1-1.068.045h-2.3V13.359h3.259q.395,0,.395-.264c0-.191-.133-.285-.4-.285H22.765V10.9l6.01,0v-.64h1.5Zm-4.718,5.633v2.552h3.086q.386,0,.386-.263c0-.191-.13-.285-.39-.285H26.4V15.984h1.282a8.69,8.69,0,0,1,1.178.054,1.5,1.5,0,0,1,.954.569,2.286,2.286,0,0,1,.464,1.493,2.545,2.545,0,0,1-.464,1.605,1.565,1.565,0,0,1-1.06.607,8.588,8.588,0,0,1-1.046.045H22.765V18.446h1.322V15.894h1.474Zm1.9,5.172V22.98H24.369c-.258,0-.386.087-.386.263s.13.285.391.285h5.878v1.914H25.333a8.458,8.458,0,0,1-1.178-.056,1.5,1.5,0,0,1-.954-.568,2.286,2.286,0,0,1-.464-1.494,2.545,2.545,0,0,1,.464-1.6,1.561,1.561,0,0,1,1.06-.608,8.733,8.733,0,0,1,1.044-.047H27.46Zm-1.9,5v2.552h3.086c.258,0,.386-.089.386-.264,0-.191-.13-.285-.39-.285H26.4V26.159h1.282a8.777,8.777,0,0,1,1.178.054,1.5,1.5,0,0,1,.954.569,2.285,2.285,0,0,1,.464,1.493,2.545,2.545,0,0,1-.464,1.605,1.566,1.566,0,0,1-1.06.608,8.694,8.694,0,0,1-1.046.045H22.765V28.621h1.322V26.069h1.474Z" transform="translate(-10.969)" fill="#002e80" fill-rule="evenodd"/>
      <path id="Path_275" data-name="Path 275" d="M42.9,30.389V2.943a.142.142,0,0,0-.139-.143H39.993a.142.142,0,0,1-.139-.144V.144A.142.142,0,0,1,39.993,0H49.85a.142.142,0,0,1,.139.144V2.655a.142.142,0,0,1-.139.144H47.078a.142.142,0,0,0-.139.143V30.388a.142.142,0,0,1-.139.144H43.044a.141.141,0,0,1-.14-.143" transform="translate(-19.227)" fill="#df0026" fill-rule="evenodd"/>
      <path id="Path_276" data-name="Path 276" d="M6.114,17.483H9.869a.142.142,0,0,1,.139.144v8.554q0,.357-.017.838A5.978,5.978,0,0,1,9.873,28a3.591,3.591,0,0,1-.949,1.712,3.407,3.407,0,0,1-2.543.785l-2.733.035a.1.1,0,0,1-.024,0,1.757,1.757,0,0,0-.344-.033,2.256,2.256,0,0,1-.39-.035A3.3,3.3,0,0,1,.94,29.624q-.9-.767-.9-3.585V3.923a4.531,4.531,0,0,1,.033-.53s0-.006,0-.009A4.665,4.665,0,0,1,.754,1.071Q1.4,0,3.635,0H6.382A3.461,3.461,0,0,1,9.009.8a3.508,3.508,0,0,1,.9,1.766,7.242,7.242,0,0,1,.085.838c.012.273.017.529.017.767V10.3a.142.142,0,0,1-.139.143H6.114a.142.142,0,0,1-.139-.143V3.281a.812.812,0,0,0-.2-.553,1.3,1.3,0,0,0-.441-.338.569.569,0,0,0-.169-.054.992.992,0,0,0-.169-.018.849.849,0,0,0-.61.268.959.959,0,0,0-.3.589V27a1.06,1.06,0,0,0,.3.518.838.838,0,0,0,.61.232,1,1,0,0,0,.678-.267.844.844,0,0,0,.3-.66v-9.2a.142.142,0,0,1,.139-.144" transform="translate(-0.02)" fill="#df0026" fill-rule="evenodd"/>
      <path id="Path_277" data-name="Path 277" d="M64.652,30.389V22.512a.14.14,0,0,0,0-.025L60.918.168A.143.143,0,0,1,61.055,0h4.217a.142.142,0,0,1,.139.129l1.136,11.287a.139.139,0,0,0,.277,0L67.962.129A.141.141,0,0,1,68.1,0h4.217a.143.143,0,0,1,.137.168l-3.733,22.32a.181.181,0,0,0,0,.024l-.033,7.878a.142.142,0,0,1-.139.143H64.791a.142.142,0,0,1-.139-.144" transform="translate(-29.388)" fill="#df0026" fill-rule="evenodd"/>
    </g>
  </g>
</svg>
